HIERARCHY
ROOT Hips
{
  OFFSET 0.0000 94.0000 0.0000
  CHANNELS 6 Xposition Yposition Zposition Yrotation Xrotation Zrotation
  JOINT Spine
  {
    OFFSET 0.0000 12.9947 0.0000
    CHANNELS 3 Yrotation Xrotation Zrotation
    JOINT Spine1
    {
      OFFSET 0.0000 12.7099 0.0000
      CHANNELS 3 Yrotation Xrotation Zrotation
      JOINT Spine2
      {
        OFFSET 0.0000 12.7829 0.0000
        CHANNELS 3 Yrotation Xrotation Zrotation
        JOINT LeftShoulder
        {
          OFFSET 7.0401 10.4351 0.0000
          CHANNELS 3 Yrotation Xrotation Zrotation
          JOINT LeftArm
          {
            OFFSET 0.0000 13.4599 0.0000
            CHANNELS 3 Yrotation Xrotation Zrotation
            JOINT LeftForeArm
            {
              OFFSET -0.0001 26.1000 0.0000
              CHANNELS 3 Yrotation Xrotation Zrotation
              JOINT LeftHand
              {
                OFFSET 0.0000 28.9001 0.0000
                CHANNELS 3 Yrotation Xrotation Zrotation
                JOINT LeftHandIndex1
                {
                  OFFSET -2.5612 8.0739 0.1030
                  CHANNELS 3 Yrotation Xrotation Zrotation
                  JOINT LeftHandIndex2
                  {
                    OFFSET 0.0000 4.5805 0.0000
                    CHANNELS 3 Yrotation Xrotation Zrotation
                    JOINT LeftHandIndex3
                    {
                      OFFSET 0.0000 2.8180 0.0000
                      CHANNELS 3 Yrotation Xrotation Zrotation
                      End Site
                      {
                        OFFSET 0.0000 1.3566 0.0000
                      }
                    }
                  }
                }
                JOINT LeftHandMiddle1
                {
                  OFFSET -0.5450 8.1365 0.1030
                  CHANNELS 3 Yrotation Xrotation Zrotation
                  JOINT LeftHandMiddle2
                  {
                    OFFSET 0.0000 4.7024 0.0000
                    CHANNELS 3 Yrotation Xrotation Zrotation
                    JOINT LeftHandMiddle3
                    {
                      OFFSET 0.0000 3.1016 0.0000
                      CHANNELS 3 Yrotation Xrotation Zrotation
                      End Site
                      {
                        OFFSET 0.0000 1.4991 0.0000
                      }
                    }
                  }
                }
                JOINT LeftHandPinky1
                {
                  OFFSET 3.1368 7.0181 0.1031
                  CHANNELS 3 Yrotation Xrotation Zrotation
                  JOINT LeftHandPinky2
                  {
                    OFFSET 0.0000 3.5540 0.0000
                    CHANNELS 3 Yrotation Xrotation Zrotation
                    JOINT LeftHandPinky3
                    {
                      OFFSET 0.0000 2.2339 0.0000
                      CHANNELS 3 Yrotation Xrotation Zrotation
                      End Site
                      {
                        OFFSET 0.0000 1.1205 0.0000
                      }
                    }
                  }
                }
                JOINT LeftHandRing1
                {
                  OFFSET 1.4405 7.8067 0.1031
                  CHANNELS 3 Yrotation Xrotation Zrotation
                  JOINT LeftHandRing2
                  {
                    OFFSET 0.0000 4.3922 0.0000
                    CHANNELS 3 Yrotation Xrotation Zrotation
                    JOINT LeftHandRing3
                    {
                      OFFSET 0.0000 2.8327 0.0000
                      CHANNELS 3 Yrotation Xrotation Zrotation
                      End Site
                      {
                        OFFSET 0.0000 1.3500 0.0000
                      }
                    }
                  }
                }
                JOINT LeftHandThumb1
                {
                  OFFSET -2.7863 2.0790 0.0946
                  CHANNELS 3 Yrotation Xrotation Zrotation
                  JOINT LeftHandThumb2
                  {
                    OFFSET 0.0000 3.9619 0.0000
                    CHANNELS 3 Yrotation Xrotation Zrotation
                    JOINT LeftHandThumb3
                    {
                      OFFSET 0.0000 3.0071 0.0000
                      CHANNELS 3 Yrotation Xrotation Zrotation
                      End Site
                      {
                        OFFSET 0.0000 1.7295 0.0000
                      }
                    }
                  }
                }
              }
            }
          }
        }
        JOINT Neck
        {
          OFFSET 0.0000 18.2093 0.0000
          CHANNELS 3 Yrotation Xrotation Zrotation
          JOINT Head
          {
            OFFSET 0.0000 11.0335 0.0000
            CHANNELS 3 Yrotation Xrotation Zrotation
            End Site
            {
              OFFSET 0.0000 8.0220 0.0000
            }
          }
        }
        JOINT RightShoulder
        {
          OFFSET -7.0401 10.4351 0.0000
          CHANNELS 3 Yrotation Xrotation Zrotation
          JOINT RightArm
          {
            OFFSET 0.0000 13.4599 0.0000
            CHANNELS 3 Yrotation Xrotation Zrotation
            JOINT RightForeArm
            {
              OFFSET 0.0000 26.1001 0.0000
              CHANNELS 3 Yrotation Xrotation Zrotation
              JOINT RightHand
              {
                OFFSET -0.0001 28.9001 -0.0001
                CHANNELS 3 Yrotation Xrotation Zrotation
                JOINT RightHandIndex1
                {
                  OFFSET 2.5611 8.0740 0.1030
                  CHANNELS 3 Yrotation Xrotation Zrotation
                  JOINT RightHandIndex2
                  {
                    OFFSET 0.0000 4.5805 -0.0001
                    CHANNELS 3 Yrotation Xrotation Zrotation
                    JOINT RightHandIndex3
                    {
                      OFFSET 0.0000 2.8180 0.0000
                      CHANNELS 3 Yrotation Xrotation Zrotation
                      End Site
                      {
                        OFFSET 0.0000 1.3566 0.0000
                      }
                    }
                  }
                }
                JOINT RightHandMiddle1
                {
                  OFFSET 0.5450 8.1366 0.1030
                  CHANNELS 3 Yrotation Xrotation Zrotation
                  JOINT RightHandMiddle2
                  {
                    OFFSET 0.0000 4.7024 -0.0001
                    CHANNELS 3 Yrotation Xrotation Zrotation
                    JOINT RightHandMiddle3
                    {
                      OFFSET 0.0000 3.1016 0.0000
                      CHANNELS 3 Yrotation Xrotation Zrotation
                      End Site
                      {
                        OFFSET 0.0000 1.4991 0.0000
                      }
                    }
                  }
                }
                JOINT RightHandPinky1
                {
                  OFFSET -3.1368 7.0181 0.1030
                  CHANNELS 3 Yrotation Xrotation Zrotation
                  JOINT RightHandPinky2
                  {
                    OFFSET 0.0000 3.5541 -0.0001
                    CHANNELS 3 Yrotation Xrotation Zrotation
                    JOINT RightHandPinky3
                    {
                      OFFSET 0.0000 2.2340 0.0000
                      CHANNELS 3 Yrotation Xrotation Zrotation
                      End Site
                      {
                        OFFSET 0.0000 1.1205 0.0000
                      }
                    }
                  }
                }
                JOINT RightHandRing1
                {
                  OFFSET -1.4405 7.8068 0.1030
                  CHANNELS 3 Yrotation Xrotation Zrotation
                  JOINT RightHandRing2
                  {
                    OFFSET 0.0000 4.3923 -0.0001
                    CHANNELS 3 Yrotation Xrotation Zrotation
                    JOINT RightHandRing3
                    {
                      OFFSET 0.0000 2.8327 0.0000
                      CHANNELS 3 Yrotation Xrotation Zrotation
                      End Site
                      {
                        OFFSET 0.0000 1.3500 0.0000
                      }
                    }
                  }
                }
                JOINT RightHandThumb1
                {
                  OFFSET 2.7863 2.0791 0.0945
                  CHANNELS 3 Yrotation Xrotation Zrotation
                  JOINT RightHandThumb2
                  {
                    OFFSET 0.0000 3.9620 -0.0001
                    CHANNELS 3 Yrotation Xrotation Zrotation
                    JOINT RightHandThumb3
                    {
                      OFFSET 0.0000 3.0072 -0.0001
                      CHANNELS 3 Yrotation Xrotation Zrotation
                      End Site
                      {
                        OFFSET 0.0000 1.7295 0.0000
                      }
                    }
                  }
                }
              }
            }
          }
        }
      }
    }
  }
  JOINT LeftUpLeg
  {
    OFFSET 8.1000 0.0000 0.0000
    CHANNELS 3 Yrotation Xrotation Zrotation
    JOINT LeftLeg
    {
      OFFSET 0.0000 43.2000 0.0000
      CHANNELS 3 Yrotation Xrotation Zrotation
      JOINT LeftFoot
      {
        OFFSET 0.0000 43.3000 0.0000
        CHANNELS 3 Yrotation Xrotation Zrotation
        JOINT LeftToeBase
        {
          OFFSET 0.0000 14.5727 0.0000
          CHANNELS 3 Yrotation Xrotation Zrotation
          End Site
          {
            OFFSET 0.0000 3.5000 0.0000
          }
        }
      }
    }
  }
  JOINT RightUpLeg
  {
    OFFSET -8.1000 0.0000 0.0000
    CHANNELS 3 Yrotation Xrotation Zrotation
    JOINT RightLeg
    {
      OFFSET 0.0000 43.2000 0.0000
      CHANNELS 3 Yrotation Xrotation Zrotation
      JOINT RightFoot
      {
        OFFSET 0.0000 43.3000 0.0000
        CHANNELS 3 Yrotation Xrotation Zrotation
        JOINT RightToeBase
        {
          OFFSET 0.0000 14.5727 0.0000
          CHANNELS 3 Yrotation Xrotation Zrotation
          End Site
          {
            OFFSET 0.0000 3.5000 0.0000
          }
        }
      }
    }
  }
}
MOTION
Frames: 9
Frame Time: 0.033333
22.7138 23.2081 0.0292 6.9561 -68.0166 61.1853 0.0000 -0.0001 0.0000 0.0000 0.0000 0.0000 -13.6561 0.0000 0.0000 -269.9998 90.0000 0.0000 -78.2722 -6.0071 -13.0903 0.0000 0.0000 38.8906 0.0000 0.0000 0.0000 4.4556 17.5008 8.6883 0.0000 18.0000 0.0000 0.0000 17.9987 -0.0008 0.0000 17.9996 5.4001 0.0000 18.0000 0.0000 0.0001 18.0000 0.0001 -22.7691 18.0024 -13.2938 -0.0003 17.9994 0.0003 0.0000 18.0004 -0.0006 -11.4059 19.2849 -1.9366 0.0000 18.0000 0.0000 0.0000 17.9990 -0.0001 59.0813 -12.4334 28.1708 -0.3546 6.3513 -6.3900 -0.3550 6.3509 -6.3901 0.0000 0.0000 0.0000 -0.4649 -0.0257 -0.1612 270.0002 90.0000 0.0000 88.0977 10.2853 29.0027 -0.0001 0.0000 -58.9055 0.0000 0.0000 0.0000 -4.4558 17.5007 -8.6881 0.0000 18.0000 0.0000 0.0000 17.9994 0.0002 -0.0001 17.9999 -5.3999 0.0000 18.0000 0.0000 0.0000 18.0000 0.0000 22.7693 18.0026 13.2939 0.0000 17.9989 0.0001 0.0000 17.9993 0.0002 11.4057 19.2849 1.9367 0.0000 18.0000 0.0000 0.0000 17.9992 0.0000 -59.0813 -12.4333 -28.1704 0.3548 6.3506 6.3897 0.3549 6.3508 6.3902 3.4975 -43.8593 -150.3301 -179.9667 -61.9867 -179.9533 -2.9979 76.9468 -4.8784 0.0000 24.7755 0.0003 -11.0332 -52.5217 -175.1330 179.9831 -53.0422 179.9374 2.2105 71.3447 6.4740 0.0000 23.9809 4.4079 
22.3688 23.5173 0.0636 7.2311 -67.8691 61.0645 0.0000 -0.0001 0.0000 0.0000 0.0000 0.0000 -13.9531 0.0000 0.0000 -269.9998 90.0000 0.0000 -77.6841 -5.6683 -13.8621 0.0000 0.0000 39.1145 0.0000 0.0000 0.0000 4.4556 17.5008 8.6883 0.0000 18.0001 0.0000 0.0000 17.9987 -0.0008 0.0000 17.9996 5.4001 0.0000 18.0001 0.0000 0.0001 18.0000 0.0001 -22.7691 18.0024 -13.2938 -0.0003 17.9994 0.0003 -0.0001 18.0004 -0.0006 -11.4059 19.2849 -1.9366 0.0000 18.0000 0.0000 0.0000 17.9990 -0.0001 59.0813 -12.4334 28.1708 -0.3546 6.3513 -6.3900 -0.3550 6.3509 -6.3901 0.0000 0.0000 0.0000 -0.0660 -0.1901 -0.2387 270.0002 90.0000 0.0000 88.5708 10.6536 28.8765 -0.0001 0.0000 -59.1793 0.0000 0.0000 0.0000 -4.4558 17.5007 -8.6881 0.0000 18.0000 0.0000 0.0000 17.9994 0.0002 -0.0001 17.9999 -5.3999 0.0000 18.0000 0.0000 0.0000 18.0000 0.0000 22.7693 18.0026 13.2939 0.0000 17.9989 0.0001 0.0000 17.9993 0.0002 11.4057 19.2849 1.9367 0.0000 18.0000 0.0000 0.0000 17.9991 0.0000 -59.0813 -12.4333 -28.1704 0.3548 6.3506 6.3897 0.3549 6.3508 6.3902 4.0558 -43.5563 -150.6772 -179.9661 -62.6306 -179.9537 -3.5291 77.6902 -5.5597 0.0000 24.7271 0.0003 -10.6969 -52.1122 -175.3673 179.9835 -53.6459 179.9368 2.1924 71.0799 6.4702 0.0000 23.9903 4.4083 
22.2667 23.7298 -0.0178 7.1990 -67.6911 61.0410 0.0000 -0.0001 0.0000 0.0000 0.0000 0.0000 -14.1298 0.0000 0.0000 -269.9998 90.0000 0.0000 -77.3838 -4.9023 -14.1932 0.0000 0.0000 39.4960 0.0000 0.0000 0.0000 4.4556 17.5008 8.6883 0.0000 18.0000 0.0000 0.0000 17.9987 -0.0008 0.0000 17.9996 5.4001 0.0000 18.0000 0.0000 0.0001 18.0000 0.0001 -22.7691 18.0024 -13.2938 -0.0003 17.9994 0.0004 -0.0001 18.0004 -0.0006 -11.4059 19.2849 -1.9366 0.0000 18.0000 0.0000 0.0000 17.9990 -0.0001 59.0813 -12.4334 28.1708 -0.3546 6.3513 -6.3900 -0.3550 6.3509 -6.3901 0.0000 0.0000 0.0000 0.2691 -0.1974 -0.1357 270.0002 90.0000 0.0000 89.2199 11.1350 28.3305 -0.0001 0.0000 -59.0808 0.0000 0.0000 0.0000 -4.4558 17.5007 -8.6881 0.0000 18.0000 -0.0001 0.0000 17.9994 0.0002 -0.0001 17.9999 -5.3999 0.0000 18.0000 0.0000 0.0000 18.0000 0.0000 22.7693 18.0026 13.2939 0.0000 17.9989 0.0001 0.0000 17.9993 0.0002 11.4057 19.2849 1.9367 0.0000 18.0000 0.0000 0.0000 17.9992 0.0000 -59.0813 -12.4333 -28.1704 0.3548 6.3506 6.3897 0.3549 6.3508 6.3902 4.4598 -43.3505 -150.8338 -179.9662 -62.8787 -179.9536 -3.9779 78.1324 -6.1669 0.0000 24.7074 0.0003 -10.3590 -51.9056 -175.6186 179.9839 -53.9376 179.9364 2.2120 70.8840 6.6068 0.0000 23.9933 4.4188 
22.3612 23.7394 -0.2198 6.9483 -67.5213 61.1290 0.0000 -0.0001 0.0000 0.0000 0.0000 0.0000 -14.1215 0.0000 0.0000 -269.9998 90.0000 0.0000 -77.1643 -3.7043 -14.0573 0.0000 0.0000 39.8126 0.0000 0.0000 0.0000 4.4556 17.5008 8.6883 0.0000 18.0000 0.0000 0.0000 17.9987 -0.0008 0.0000 17.9996 5.4001 0.0000 18.0001 0.0000 0.0001 18.0000 0.0001 -22.7691 18.0024 -13.2938 -0.0003 17.9994 0.0003 0.0000 18.0004 -0.0006 -11.4059 19.2849 -1.9366 0.0000 18.0000 0.0000 0.0000 17.9990 -0.0001 59.0813 -12.4334 28.1708 -0.3546 6.3513 -6.3900 -0.3550 6.3509 -6.3901 0.0000 0.0000 0.0000 0.4535 -0.0827 0.0586 270.0002 90.0000 0.0000 89.8968 11.5874 27.4506 -0.0001 0.0000 -58.7090 0.0000 0.0000 0.0000 -4.4558 17.5007 -8.6881 0.0000 18.0000 -0.0001 0.0000 17.9994 0.0002 -0.0001 17.9999 -5.3999 0.0000 18.0000 0.0000 0.0000 18.0000 0.0000 22.7693 18.0026 13.2939 0.0000 17.9989 0.0001 -0.0001 17.9992 0.0002 11.4057 19.2849 1.9367 0.0000 18.0000 0.0000 0.0000 17.9992 0.0000 -59.0813 -12.4333 -28.1704 0.3548 6.3506 6.3897 0.3549 6.3508 6.3902 4.6703 -43.3854 -150.9055 -179.9665 -62.7406 -179.9533 -4.1559 78.1672 -6.4544 0.0000 24.7145 0.0003 -10.0970 -52.0577 -175.8923 179.9839 -53.9006 179.9363 2.2543 70.7469 6.8299 0.0000 23.9844 4.4410 
22.4721 23.5726 -0.4715 6.6800 -67.3944 61.3096 0.0000 -0.0001 0.0000 0.0000 0.0000 0.0000 -13.9329 0.0000 0.0000 -269.9998 90.0000 0.0000 -76.6980 -2.0989 -13.6252 0.0000 0.0000 39.8909 0.0000 0.0000 0.0000 4.4556 17.5008 8.6883 0.0000 18.0000 0.0000 0.0000 17.9987 -0.0008 0.0000 17.9996 5.4001 0.0000 18.0001 0.0000 0.0001 18.0000 0.0001 -22.7691 18.0024 -13.2938 -0.0003 17.9994 0.0003 0.0000 18.0004 -0.0006 -11.4059 19.2849 -1.9366 0.0000 18.0000 0.0000 0.0000 17.9990 -0.0001 59.0812 -12.4334 28.1708 -0.3546 6.3513 -6.3900 -0.3550 6.3509 -6.3901 0.0000 0.0000 0.0000 0.4506 0.0651 0.1973 270.0002 90.0000 0.0000 90.3169 11.8880 26.4077 -0.0001 0.0000 -58.3720 0.0000 0.0000 0.0000 -4.4558 17.5007 -8.6881 0.0000 18.0000 0.0000 0.0000 17.9994 0.0002 -0.0001 17.9999 -5.3999 0.0000 18.0000 0.0000 0.0000 18.0000 0.0000 22.7693 18.0026 13.2939 0.0000 17.9989 0.0001 -0.0001 17.9993 0.0002 11.4057 19.2849 1.9367 0.0000 18.0000 0.0000 0.0000 17.9992 0.0000 -59.0813 -12.4333 -28.1704 0.3548 6.3506 6.3897 0.3549 6.3508 6.3902 4.7721 -43.6176 -151.0907 -179.9668 -62.5039 -179.9531 -4.0328 77.7838 -6.3756 0.0000 24.7365 0.0003 -9.9803 -52.4807 -176.2138 179.9838 -53.7355 179.9365 2.2964 70.7029 7.0134 0.0000 23.9589 4.4760 
22.5103 23.3269 -0.7266 6.7007 -67.3312 61.5046 0.0000 -0.0001 0.0000 0.0000 0.0000 0.0000 -13.6720 0.0000 0.0000 -269.9998 90.0000 0.0000 -75.5224 -0.2121 -13.4595 0.0000 0.0000 39.8896 0.0000 0.0000 0.0000 4.4556 17.5008 8.6883 0.0000 18.0001 0.0000 0.0000 17.9987 -0.0008 0.0000 17.9996 5.4001 0.0000 18.0001 0.0000 0.0001 18.0000 0.0001 -22.7691 18.0024 -13.2938 -0.0003 17.9994 0.0004 -0.0001 18.0004 -0.0006 -11.4059 19.2849 -1.9366 0.0000 18.0000 0.0000 0.0000 17.9990 -0.0001 59.0813 -12.4334 28.1708 -0.3546 6.3513 -6.3900 -0.3550 6.3509 -6.3901 0.0000 0.0000 0.0000 0.3252 0.1155 0.1150 270.0002 90.0000 0.0000 89.7682 12.0888 25.6258 0.0000 0.0000 -58.9507 0.0000 0.0000 0.0000 -4.4558 17.5007 -8.6881 0.0000 18.0000 0.0000 0.0000 17.9993 0.0002 -0.0001 17.9999 -5.3999 0.0000 18.0000 0.0000 0.0000 18.0000 0.0000 22.7693 18.0026 13.2939 0.0000 17.9989 0.0001 0.0000 17.9993 0.0002 11.4057 19.2849 1.9367 0.0000 18.0000 0.0000 0.0000 17.9992 0.0000 -59.0813 -12.4333 -28.1704 0.3548 6.3506 6.3897 0.3549 6.3508 6.3902 4.9954 -43.9944 -151.7259 -179.9666 -62.3702 -179.9533 -3.5880 77.2557 -5.7798 0.0000 24.7548 0.0003 -9.8572 -53.0851 -176.8241 179.9834 -53.5616 179.9370 2.3406 70.8534 7.0620 0.0000 23.9202 4.5187 
22.5633 23.1228 -0.9770 6.8896 -67.2790 61.5625 0.0000 -0.0001 0.0000 0.0000 0.0000 0.0000 -13.4672 0.0000 0.0000 -269.9998 90.0000 0.0000 -74.1646 1.4749 -13.4824 0.0000 0.0000 40.0595 0.0000 0.0000 0.0000 4.4556 17.5008 8.6883 0.0000 18.0000 0.0000 0.0000 17.9987 -0.0008 0.0000 17.9996 5.4001 0.0000 18.0001 0.0000 0.0001 18.0000 0.0001 -22.7691 18.0024 -13.2938 -0.0003 17.9994 0.0003 -0.0001 18.0004 -0.0006 -11.4059 19.2849 -1.9366 0.0000 18.0000 0.0000 0.0000 17.9990 -0.0001 59.0812 -12.4334 28.1708 -0.3546 6.3513 -6.3900 -0.3550 6.3509 -6.3901 0.0000 -0.0001 0.0000 0.2762 0.1432 0.0627 270.0002 90.0000 0.0000 88.6259 12.8164 25.0869 -0.0001 0.0000 -60.7565 0.0000 0.0000 0.0000 -4.4558 17.5007 -8.6881 0.0000 18.0000 0.0000 0.0000 17.9994 0.0002 -0.0001 17.9999 -5.3999 0.0000 18.0000 0.0000 0.0000 18.0000 0.0000 22.7693 18.0026 13.2939 0.0000 17.9989 0.0001 -0.0001 17.9993 0.0002 11.4057 19.2849 1.9367 0.0000 18.0000 0.0000 0.0000 17.9992 0.0000 -59.0813 -12.4333 -28.1704 0.3548 6.3506 6.3897 0.3549 6.3508 6.3902 5.3043 -44.3953 -152.4166 -179.9663 -62.2482 -179.9536 -3.0259 76.7421 -4.9501 0.0000 24.7747 0.0002 -9.6619 -53.6708 -177.4385 179.9831 -53.3959 179.9373 2.3001 71.0154 6.8539 0.0000 23.8976 4.5411 
22.7047 23.0177 -1.1760 7.2378 -67.2400 61.3875 0.0000 -0.0001 0.0000 0.0000 0.0000 0.0000 -13.3307 0.0000 0.0000 -269.9998 90.0000 0.0000 -73.2460 3.0042 -13.2921 0.0000 0.0000 40.0227 0.0000 0.0000 0.0000 4.4556 17.5008 8.6883 0.0000 18.0000 0.0000 0.0000 17.9987 -0.0008 0.0000 17.9996 5.4001 0.0000 18.0001 0.0000 0.0001 18.0000 0.0001 -22.7691 18.0024 -13.2938 -0.0003 17.9994 0.0004 -0.0001 18.0004 -0.0006 -11.4059 19.2849 -1.9366 0.0000 18.0000 0.0000 0.0000 17.9990 -0.0001 59.0812 -12.4334 28.1708 -0.3546 6.3513 -6.3900 -0.3550 6.3509 -6.3901 0.0001 -0.0001 0.0000 0.3013 0.1690 0.1338 270.0002 90.0000 0.0000 87.5273 14.1336 24.3567 -0.0001 0.0000 -63.1576 0.0000 0.0000 0.0000 -4.4558 17.5007 -8.6881 0.0000 18.0000 -0.0001 0.0000 17.9994 0.0002 -0.0001 17.9999 -5.3999 0.0000 18.0000 0.0000 0.0000 18.0000 0.0000 22.7693 18.0026 13.2939 0.0000 17.9989 0.0001 -0.0001 17.9993 0.0002 11.4057 19.2849 1.9367 0.0000 18.0000 0.0000 0.0000 17.9992 0.0000 -59.0813 -12.4333 -28.1704 0.3548 6.3506 6.3897 0.3549 6.3508 6.3902 5.6012 -44.7567 -152.9215 -179.9660 -62.0467 -179.9540 -2.5489 76.3752 -4.2060 0.0000 24.7973 0.0002 -9.3670 -54.1485 -177.9418 179.9831 -53.1776 179.9374 2.2395 71.1712 6.6215 0.0000 23.8982 4.5359 
22.8549 22.9713 -1.2131 7.8557 -67.2451 60.9619 0.0000 -0.0001 0.0000 0.0000 0.0000 0.0000 -13.2620 0.0000 0.0000 -269.9998 90.0000 0.0000 -72.9740 4.8036 -12.8081 0.0000 0.0000 39.4965 0.0000 0.0000 0.0000 4.4556 17.5008 8.6883 0.0000 18.0000 0.0000 0.0000 17.9987 -0.0008 0.0000 17.9996 5.4001 0.0000 18.0001 0.0000 0.0001 18.0000 0.0001 -22.7691 18.0024 -13.2938 -0.0003 17.9994 0.0003 -0.0001 18.0004 -0.0006 -11.4059 19.2849 -1.9366 0.0000 18.0000 0.0000 0.0000 17.9990 -0.0001 59.0813 -12.4334 28.1708 -0.3546 6.3513 -6.3900 -0.3550 6.3509 -6.3901 0.0001 -0.0001 0.0000 0.3381 0.1461 0.2457 270.0002 90.0000 0.0000 86.6100 15.7496 23.1230 -0.0001 0.0000 -65.4108 0.0000 0.0000 0.0000 -4.4558 17.5007 -8.6881 0.0000 18.0000 0.0000 0.0000 17.9994 0.0002 -0.0001 17.9999 -5.3999 0.0000 18.0000 0.0000 0.0000 18.0000 0.0000 22.7693 18.0026 13.2939 0.0000 17.9989 0.0001 -0.0001 17.9993 0.0002 11.4057 19.2849 1.9367 0.0000 18.0000 0.0000 0.0000 17.9992 0.0000 -59.0813 -12.4333 -28.1704 0.3548 6.3506 6.3897 0.3549 6.3508 6.3902 5.7478 -45.0909 -153.1688 -179.9657 -61.8578 -179.9543 -2.2607 76.1063 -3.7532 0.0000 24.8174 0.0003 -9.1575 -54.5124 -178.1715 179.9830 -52.9358 179.9375 2.1827 71.3335 6.4089 0.0000 23.9155 4.5072 
